<?xml version="1.0" encoding="UTF-8" standalone="no"?>
<!DOCTYPE svg PUBLIC "-//W3C//DTD SVG 1.1//EN" "http://www.w3.org/Graphics/SVG/1.1/DTD/svg11.dtd">
<svg xmlns="http://www.w3.org/2000/svg" version="1.1" viewBox="0.00 0.00 684.00 254.00">
<g stroke-width="2.00" fill="none" stroke-linecap="butt">
<path stroke="#4d4c95" vector-effect="non-scaling-stroke" d="
  M 342.84 180.76
  Q 342.63 180.76 342.42 180.75"
/>
<path stroke="#8684ee" vector-effect="non-scaling-stroke" d="
  M 342.42 180.75
  Q 342.44 179.66 342.68 178.72
  Q 343.00 177.50 342.97 176.73
  Q 342.68 166.80 343.48 156.40"
/>
<path stroke="#4c4b77" vector-effect="non-scaling-stroke" d="
  M 343.48 156.40
  Q 352.18 178.89 372.98 185.36
  C 389.88 190.61 409.22 186.58 422.36 173.74
  C 436.98 159.45 438.80 136.53 431.86 117.83
  C 425.74 101.32 411.94 91.71 394.67 90.24
  Q 385.27 89.44 378.73 90.70
  Q 353.53 95.56 343.28 121.75"
/>
<path stroke="#8684ee" vector-effect="non-scaling-stroke" d="
  M 343.28 121.75
  L 343.00 11.18
  A 0.56 0.56 0.0 0 0 342.44 10.62
  L 83.34 10.57
  Q 82.75 10.57 82.75 11.16
  L 82.75 219.00
  A 0.51 0.51 0.0 0 0 83.26 219.51
  L 342.69 219.51
  A 0.30 0.29 -0.0 0 0 342.99 219.22
  L 342.84 180.76"
/>
<path stroke="#3a3a77" vector-effect="non-scaling-stroke" d="
  M 343.28 121.75
  Q 338.80 139.35 343.48 156.40"
/>
<path stroke="#3a3b95" vector-effect="non-scaling-stroke" d="
  M 342.42 180.75
  Q 342.29 177.65 340.35 176.18
  Q 339.50 175.54 335.96 175.03
  Q 329.91 174.15 326.18 168.87
  Q 311.39 147.90 299.49 128.56
  Q 297.84 125.89 296.23 122.75
  Q 295.95 122.22 296.53 122.07
  C 313.81 117.69 324.99 108.28 325.03 89.29
  C 325.06 71.43 311.59 62.25 295.31 59.23
  Q 286.22 57.54 278.60 57.82
  Q 267.95 58.21 256.55 58.80
  Q 244.44 59.42 229.62 58.24
  Q 224.63 57.85 222.18 62.31
  Q 221.91 62.81 221.68 62.29
  Q 219.61 57.70 214.19 58.28
  C 203.49 59.43 193.11 59.43 182.60 58.27
  Q 180.74 58.06 178.91 58.62
  C 172.94 60.44 172.36 68.79 178.09 71.25
  C 180.93 72.48 184.88 71.60 187.95 71.52
  A 0.33 0.33 0.0 0 1 188.29 71.85
  Q 188.67 94.83 189.58 121.85
  Q 189.89 130.90 189.71 138.72
  C 189.42 151.65 185.19 168.43 170.64 172.18
  Q 161.42 174.56 152.47 172.41
  C 140.24 169.49 140.11 154.90 140.07 145.10
  Q 139.95 118.30 140.46 90.43
  Q 140.62 81.38 140.35 72.67
  Q 140.32 71.60 141.40 71.63
  C 145.84 71.75 151.94 73.36 154.00 67.73
  C 155.58 63.40 152.81 57.93 147.72 58.32
  Q 123.85 60.13 102.89 58.24
  C 93.17 57.36 92.62 72.27 102.47 71.90
  Q 105.50 71.79 108.58 71.60
  Q 109.69 71.53 109.70 72.64
  Q 109.88 101.49 109.57 135.75
  C 109.47 146.19 110.32 156.31 115.08 165.47
  C 122.19 179.13 136.53 185.55 151.48 187.06
  Q 163.10 188.24 173.45 186.27
  C 198.00 181.59 208.07 160.47 207.95 137.34
  Q 207.80 107.39 207.68 72.53
  A 0.78 0.78 0.0 0 1 208.47 71.75
  C 213.07 71.79 219.42 73.43 221.53 67.61
  Q 221.82 66.80 222.21 67.57
  C 224.97 72.94 230.73 71.78 235.72 71.32
  A 0.49 0.49 0.0 0 1 236.26 71.81
  L 236.25 173.96
  Q 236.25 174.50 235.72 174.50
  Q 232.55 174.54 229.15 174.26
  C 218.41 173.39 218.29 187.48 227.86 187.22
  C 242.65 186.81 257.26 185.81 271.88 187.11
  C 279.20 187.77 281.77 179.90 276.64 175.37
  C 274.10 173.14 269.38 174.30 266.23 174.39
  A 0.42 0.41 -0.7 0 1 265.80 173.98
  Q 265.64 149.94 265.63 125.75
  Q 265.63 125.27 265.70 125.21
  A 0.90 0.89 58.3 0 1 267.01 125.53
  Q 281.35 153.16 295.40 177.82
  C 298.08 182.53 301.90 185.64 307.31 186.77
  C 315.33 188.44 323.94 187.87 332.53 187.11
  Q 336.61 186.76 339.35 185.38
  Q 341.21 184.44 342.84 180.76"
/>
<path stroke="#4c4b77" vector-effect="non-scaling-stroke" d="
  M 453.88 70.27
  Q 454.89 69.97 454.89 71.02
  L 454.89 173.89
  A 0.52 0.51 -87.5 0 1 454.33 174.41
  C 451.31 174.12 447.36 173.80 444.73 175.57
  C 440.26 178.56 441.83 186.65 447.73 186.92
  Q 452.16 187.12 458.42 186.56
  Q 468.35 185.68 484.00 186.84
  C 486.26 187.00 489.24 187.33 491.35 186.69
  Q 495.80 185.33 495.68 180.51
  C 495.51 173.83 489.55 173.86 484.71 174.80
  Q 483.63 175.01 483.63 173.90
  Q 483.86 116.65 484.04 57.54
  C 484.06 53.67 479.92 51.33 476.54 51.99
  C 467.17 53.83 458.16 56.72 448.55 58.25
  C 445.86 58.68 443.48 59.65 442.03 62.09
  C 440.41 64.83 441.19 68.81 444.07 70.49
  C 446.90 72.14 450.78 71.23 453.88 70.27"
/>
<path stroke="#4c4b77" vector-effect="non-scaling-stroke" d="
  M 574.30 69.88
  A 0.50 0.50 0.0 0 0 574.04 69.33
  L 541.71 53.53
  A 0.50 0.50 0.0 0 0 541.27 53.52
  L 508.72 69.01
  A 0.50 0.50 0.0 0 0 508.45 69.58
  L 511.68 82.79
  A 0.50 0.50 0.0 0 0 512.32 83.14
  L 540.99 73.79
  A 0.50 0.50 0.0 0 1 541.31 73.79
  L 570.72 83.50
  A 0.50 0.50 0.0 0 0 571.37 83.13
  L 574.30 69.88"
/>
<path stroke="#4c4b77" vector-effect="non-scaling-stroke" d="
  M 529.84 134.23
  Q 534.59 133.97 539.35 134.01
  Q 557.49 134.14 576.11 134.40
  Q 580.28 134.46 582.39 131.31
  C 584.30 128.46 583.76 124.97 583.49 121.73
  C 581.73 100.86 565.83 90.26 546.20 90.26
  C 513.41 90.27 496.69 118.95 500.82 148.86
  C 502.81 163.28 510.85 176.12 523.94 182.63
  C 534.96 188.12 549.38 189.01 561.00 185.23
  C 570.54 182.11 580.44 174.88 585.12 165.58
  C 587.64 160.58 585.53 155.74 580.03 154.69
  C 578.09 154.32 576.03 155.15 574.75 156.63
  Q 571.58 160.34 568.66 163.88
  Q 559.85 174.60 545.88 173.66
  C 537.21 173.07 532.73 160.75 530.95 153.83
  Q 528.60 144.68 529.27 134.79
  Q 529.31 134.25 529.84 134.23"
/>
<path stroke="#808080" vector-effect="non-scaling-stroke" d="
  M 458.61 174.31
  C 458.60 176.59 457.14 178.19 454.79 178.04
  Q 451.46 177.83 447.99 177.98
  A 2.20 2.19 -84.4 0 0 445.95 179.66
  Q 445.70 180.69 446.00 181.63
  Q 446.61 183.56 448.64 183.42
  Q 464.35 182.30 472.89 182.58
  Q 480.76 182.83 489.06 183.44
  Q 491.83 183.64 492.03 180.87
  Q 492.04 180.72 492.04 180.58
  Q 492.06 177.89 489.38 178.07
  Q 487.22 178.21 484.83 178.36
  C 479.96 178.66 479.89 175.25 479.91 171.76
  Q 480.27 111.29 480.38 58.12
  C 480.39 55.97 478.33 55.09 476.43 55.60
  Q 460.71 59.84 447.98 62.17
  C 446.73 62.40 445.13 63.33 444.88 64.68
  C 444.54 66.52 445.98 68.03 447.84 67.78
  Q 450.41 67.45 453.11 66.78
  C 458.62 65.40 458.44 69.50 458.46 73.27
  Q 458.77 123.26 458.61 174.31"
/>
<path stroke="#808080" vector-effect="non-scaling-stroke" d="
  M 570.09 71.89
  A 0.48 0.48 0.0 0 0 569.83 71.35
  L 541.73 57.59
  A 0.48 0.48 0.0 0 0 541.31 57.59
  L 512.96 71.01
  A 0.48 0.48 0.0 0 0 512.70 71.56
  L 514.29 78.09
  A 0.48 0.48 0.0 0 0 514.90 78.43
  L 541.06 69.92
  A 0.48 0.48 0.0 0 1 541.36 69.92
  L 568.00 78.75
  A 0.48 0.48 0.0 0 0 568.62 78.40
  L 570.09 71.89"
/>
<path stroke="#391f7a" vector-effect="non-scaling-stroke" d="
  M 291.05 119.64
  Q 300.90 117.73 308.46 113.47
  C 318.57 107.77 321.86 98.10 321.28 87.02
  C 320.06 63.76 289.84 60.22 272.13 61.66
  Q 250.74 63.41 228.88 61.96
  Q 225.92 61.76 225.35 64.68
  Q 225.04 66.28 227.79 67.87
  A 1.35 1.31 58.2 0 0 228.54 68.06
  L 236.08 67.71
  A 3.61 3.60 -1.4 0 1 239.86 71.31
  Q 239.83 122.70 239.88 174.13
  C 239.89 179.83 231.04 178.16 227.73 177.83
  A 2.61 2.57 -63.9 0 0 225.70 178.54
  Q 224.30 179.88 224.54 181.29
  Q 224.93 183.58 227.26 183.54
  C 242.22 183.24 257.46 182.27 272.56 183.45
  Q 275.29 183.66 275.64 180.95
  Q 275.67 180.73 275.62 180.51
  Q 274.99 177.68 272.48 177.76
  Q 269.03 177.87 265.77 178.01
  A 3.50 3.50 0.0 0 1 262.13 174.52
  L 261.98 121.80
  A 0.46 0.46 0.0 0 1 262.46 121.33
  L 268.45 121.51
  Q 269.02 121.53 269.29 122.04
  Q 283.42 149.22 298.42 175.78
  C 301.72 181.62 306.71 183.60 313.20 183.94
  Q 322.12 184.42 332.59 183.42
  C 334.52 183.24 339.53 182.65 338.47 179.61
  A 1.31 1.30 79.3 0 0 337.20 178.74
  C 331.22 178.91 326.20 175.27 322.90 170.58
  Q 311.00 153.70 300.34 136.86
  Q 295.37 129.01 290.67 120.44
  Q 290.31 119.78 291.05 119.64"
/>
<path stroke="#61639b" vector-effect="non-scaling-stroke" d="
  M 112.32 68.92
  Q 113.41 70.60 113.39 73.00
  Q 113.14 107.13 113.33 141.75
  C 113.46 163.23 124.33 178.36 145.76 182.48
  C 162.98 185.80 185.18 184.30 195.94 168.15
  C 201.76 159.40 204.30 148.76 204.28 138.66
  Q 204.19 104.26 204.07 71.35
  A 3.29 3.29 0.0 0 1 207.73 68.07
  Q 210.82 68.42 215.53 68.16
  Q 218.52 68.00 218.40 65.00
  Q 218.39 64.82 218.39 64.63
  Q 218.33 61.65 214.96 61.96
  Q 197.56 63.54 181.45 61.92
  A 2.71 2.67 32.2 0 0 179.85 62.27
  Q 177.62 63.57 177.71 64.96
  Q 177.92 68.20 181.16 68.22
  C 184.65 68.24 192.20 66.02 192.16 72.18
  C 191.99 93.76 193.27 115.08 193.43 136.70
  C 193.53 151.58 188.89 170.47 172.56 175.44
  Q 163.86 178.08 153.84 176.46
  C 137.93 173.89 136.24 158.57 136.33 145.16
  Q 136.59 108.42 136.90 71.09
  A 3.29 3.29 0.0 0 1 140.40 67.83
  L 147.75 68.30
  Q 151.02 68.51 150.81 65.24
  L 150.78 64.84
  Q 150.58 61.75 147.50 61.99
  Q 125.97 63.69 102.75 61.96
  Q 99.50 61.71 98.97 64.74
  Q 98.95 64.88 98.95 65.02
  Q 99.02 68.37 102.50 68.24
  L 110.42 67.94
  A 2.16 2.16 0.0 0 1 112.32 68.92"
/>
<path stroke="#391f7a" vector-effect="non-scaling-stroke" d="
  M 262.13 70.78
  L 261.96 115.75
  Q 261.96 116.53 262.80 116.59
  Q 270.85 117.15 278.89 115.50
  Q 293.98 112.40 296.30 98.35
  C 297.89 88.68 296.25 73.12 285.03 68.70
  C 279.02 66.34 272.29 66.58 265.89 66.87
  Q 262.14 67.03 262.13 70.78"
/>
<path stroke="#3a3b95" vector-effect="non-scaling-stroke" d="
  M 284.30 72.39
  C 278.86 69.98 272.36 70.20 266.34 70.45
  A 0.60 0.60 0.0 0 0 265.77 71.05
  L 265.57 112.29
  Q 265.57 112.99 266.27 113.00
  C 275.18 113.23 288.26 111.64 291.72 101.56
  C 294.62 93.15 293.70 76.56 284.30 72.39"
/>
<path stroke="#808080" vector-effect="non-scaling-stroke" d="
  M 401.22 94.98
  C 384.12 91.07 366.75 94.94 355.20 108.39
  C 341.87 123.90 340.77 150.81 353.45 167.11
  C 361.43 177.37 372.19 183.13 385.26 183.75
  Q 401.69 184.52 414.03 175.98
  C 431.35 163.99 435.08 143.03 429.97 123.86
  C 426.00 108.99 415.99 98.35 401.22 94.98"
/>
<path stroke="#808080" vector-effect="non-scaling-stroke" d="
  M 526.67 130.47
  Q 550.10 130.17 575.61 130.82
  Q 579.67 130.92 579.97 127.22
  C 580.58 119.70 578.19 110.44 572.96 104.55
  Q 566.44 97.21 556.54 95.08
  C 519.43 87.10 497.17 120.13 505.53 153.75
  C 510.98 175.68 530.79 186.23 552.44 183.41
  Q 566.37 181.60 576.83 170.96
  Q 580.36 167.38 582.08 163.42
  Q 583.50 160.14 580.36 158.59
  Q 578.48 157.65 577.15 159.35
  C 568.77 169.96 561.52 178.02 546.63 177.38
  C 538.84 177.04 533.93 171.31 530.96 164.80
  Q 523.84 149.17 525.95 131.12
  Q 526.03 130.48 526.67 130.47"
/>
<path stroke="#808080" vector-effect="non-scaling-stroke" d="
  M 375.98 174.32
  C 380.40 179.04 387.52 180.37 393.53 178.77
  C 401.75 176.58 406.09 166.94 407.71 159.09
  C 410.44 145.82 410.13 131.45 407.27 118.45
  Q 405.93 112.34 402.67 106.98
  Q 396.79 97.35 385.78 98.10
  C 374.36 98.89 369.56 111.87 367.79 121.49
  Q 365.15 135.89 366.95 151.09
  C 367.89 159.13 370.35 168.29 375.98 174.32"
/>
<path stroke="#808080" vector-effect="non-scaling-stroke" d="
  M 544.22 97.83
  C 533.12 99.11 528.44 115.90 526.72 124.73
  Q 526.61 125.30 527.19 125.31
  Q 542.25 125.73 558.14 124.97
  Q 558.70 124.95 558.71 124.38
  C 558.95 114.77 557.51 96.30 544.22 97.83"
/>
<path stroke="#4c4b77" vector-effect="non-scaling-stroke" d="
  M 546.96 101.48
  C 537.69 100.34 532.77 114.24 531.31 121.18
  Q 531.17 121.82 531.83 121.82
  L 554.40 121.56
  Q 555.01 121.55 555.00 120.95
  C 554.99 115.92 553.74 102.32 546.96 101.48"
/>
<path stroke="#4c4b77" vector-effect="non-scaling-stroke" d="
  M 401.45 166.33
  Q 403.79 161.18 404.70 155.27
  C 406.64 142.59 408.40 102.54 387.96 101.72
  C 380.23 101.41 376.08 107.16 373.77 113.56
  C 370.09 123.71 369.40 135.53 370.16 146.61
  C 370.76 155.25 373.78 172.34 383.90 175.07
  Q 396.00 178.33 401.45 166.33"
/>
</g>
<path fill="#9895ee" d="
  M 0.00 0.00
  L 684.00 0.00
  L 684.00 254.00
  L 0.00 254.00
  L 0.00 0.00
  Z
  M 342.84 180.76
  Q 342.63 180.76 342.42 180.75
  Q 342.44 179.66 342.68 178.72
  Q 343.00 177.50 342.97 176.73
  Q 342.68 166.80 343.48 156.40
  Q 352.18 178.89 372.98 185.36
  C 389.88 190.61 409.22 186.58 422.36 173.74
  C 436.98 159.45 438.80 136.53 431.86 117.83
  C 425.74 101.32 411.94 91.71 394.67 90.24
  Q 385.27 89.44 378.73 90.70
  Q 353.53 95.56 343.28 121.75
  L 343.00 11.18
  A 0.56 0.56 0.0 0 0 342.44 10.62
  L 83.34 10.57
  Q 82.75 10.57 82.75 11.16
  L 82.75 219.00
  A 0.51 0.51 0.0 0 0 83.26 219.51
  L 342.69 219.51
  A 0.30 0.29 -0.0 0 0 342.99 219.22
  L 342.84 180.76
  Z
  M 453.88 70.27
  Q 454.89 69.97 454.89 71.02
  L 454.89 173.89
  A 0.52 0.51 -87.5 0 1 454.33 174.41
  C 451.31 174.12 447.36 173.80 444.73 175.57
  C 440.26 178.56 441.83 186.65 447.73 186.92
  Q 452.16 187.12 458.42 186.56
  Q 468.35 185.68 484.00 186.84
  C 486.26 187.00 489.24 187.33 491.35 186.69
  Q 495.80 185.33 495.68 180.51
  C 495.51 173.83 489.55 173.86 484.71 174.80
  Q 483.63 175.01 483.63 173.90
  Q 483.86 116.65 484.04 57.54
  C 484.06 53.67 479.92 51.33 476.54 51.99
  C 467.17 53.83 458.16 56.72 448.55 58.25
  C 445.86 58.68 443.48 59.65 442.03 62.09
  C 440.41 64.83 441.19 68.81 444.07 70.49
  C 446.90 72.14 450.78 71.23 453.88 70.27
  Z
  M 574.30 69.88
  A 0.50 0.50 0.0 0 0 574.04 69.33
  L 541.71 53.53
  A 0.50 0.50 0.0 0 0 541.27 53.52
  L 508.72 69.01
  A 0.50 0.50 0.0 0 0 508.45 69.58
  L 511.68 82.79
  A 0.50 0.50 0.0 0 0 512.32 83.14
  L 540.99 73.79
  A 0.50 0.50 0.0 0 1 541.31 73.79
  L 570.72 83.50
  A 0.50 0.50 0.0 0 0 571.37 83.13
  L 574.30 69.88
  Z
  M 529.84 134.23
  Q 534.59 133.97 539.35 134.01
  Q 557.49 134.14 576.11 134.40
  Q 580.28 134.46 582.39 131.31
  C 584.30 128.46 583.76 124.97 583.49 121.73
  C 581.73 100.86 565.83 90.26 546.20 90.26
  C 513.41 90.27 496.69 118.95 500.82 148.86
  C 502.81 163.28 510.85 176.12 523.94 182.63
  C 534.96 188.12 549.38 189.01 561.00 185.23
  C 570.54 182.11 580.44 174.88 585.12 165.58
  C 587.64 160.58 585.53 155.74 580.03 154.69
  C 578.09 154.32 576.03 155.15 574.75 156.63
  Q 571.58 160.34 568.66 163.88
  Q 559.85 174.60 545.88 173.66
  C 537.21 173.07 532.73 160.75 530.95 153.83
  Q 528.60 144.68 529.27 134.79
  Q 529.31 134.25 529.84 134.23
  Z"
/>
<path fill="#7373ee" d="
  M 343.28 121.75
  Q 338.80 139.35 343.48 156.40
  Q 342.68 166.80 342.97 176.73
  Q 343.00 177.50 342.68 178.72
  Q 342.44 179.66 342.42 180.75
  Q 342.29 177.65 340.35 176.18
  Q 339.50 175.54 335.96 175.03
  Q 329.91 174.15 326.18 168.87
  Q 311.39 147.90 299.49 128.56
  Q 297.84 125.89 296.23 122.75
  Q 295.95 122.22 296.53 122.07
  C 313.81 117.69 324.99 108.28 325.03 89.29
  C 325.06 71.43 311.59 62.25 295.31 59.23
  Q 286.22 57.54 278.60 57.82
  Q 267.95 58.21 256.55 58.80
  Q 244.44 59.42 229.62 58.24
  Q 224.63 57.85 222.18 62.31
  Q 221.91 62.81 221.68 62.29
  Q 219.61 57.70 214.19 58.28
  C 203.49 59.43 193.11 59.43 182.60 58.27
  Q 180.74 58.06 178.91 58.62
  C 172.94 60.44 172.36 68.79 178.09 71.25
  C 180.93 72.48 184.88 71.60 187.95 71.52
  A 0.33 0.33 0.0 0 1 188.29 71.85
  Q 188.67 94.83 189.58 121.85
  Q 189.89 130.90 189.71 138.72
  C 189.42 151.65 185.19 168.43 170.64 172.18
  Q 161.42 174.56 152.47 172.41
  C 140.24 169.49 140.11 154.90 140.07 145.10
  Q 139.95 118.30 140.46 90.43
  Q 140.62 81.38 140.35 72.67
  Q 140.32 71.60 141.40 71.63
  C 145.84 71.75 151.94 73.36 154.00 67.73
  C 155.58 63.40 152.81 57.93 147.72 58.32
  Q 123.85 60.13 102.89 58.24
  C 93.17 57.36 92.62 72.27 102.47 71.90
  Q 105.50 71.79 108.58 71.60
  Q 109.69 71.53 109.70 72.64
  Q 109.88 101.49 109.57 135.75
  C 109.47 146.19 110.32 156.31 115.08 165.47
  C 122.19 179.13 136.53 185.55 151.48 187.06
  Q 163.10 188.24 173.45 186.27
  C 198.00 181.59 208.07 160.47 207.95 137.34
  Q 207.80 107.39 207.68 72.53
  A 0.78 0.78 0.0 0 1 208.47 71.75
  C 213.07 71.79 219.42 73.43 221.53 67.61
  Q 221.82 66.80 222.21 67.57
  C 224.97 72.94 230.73 71.78 235.72 71.32
  A 0.49 0.49 0.0 0 1 236.26 71.81
  L 236.25 173.96
  Q 236.25 174.50 235.72 174.50
  Q 232.55 174.54 229.15 174.26
  C 218.41 173.39 218.29 187.48 227.86 187.22
  C 242.65 186.81 257.26 185.81 271.88 187.11
  C 279.20 187.77 281.77 179.90 276.64 175.37
  C 274.10 173.14 269.38 174.30 266.23 174.39
  A 0.42 0.41 -0.7 0 1 265.80 173.98
  Q 265.64 149.94 265.63 125.75
  Q 265.63 125.27 265.70 125.21
  A 0.90 0.89 58.3 0 1 267.01 125.53
  Q 281.35 153.16 295.40 177.82
  C 298.08 182.53 301.90 185.64 307.31 186.77
  C 315.33 188.44 323.94 187.87 332.53 187.11
  Q 336.61 186.76 339.35 185.38
  Q 341.21 184.44 342.84 180.76
  L 342.99 219.22
  A 0.30 0.29 -0.0 0 1 342.69 219.51
  L 83.26 219.51
  A 0.51 0.51 0.0 0 1 82.75 219.00
  L 82.75 11.16
  Q 82.75 10.57 83.34 10.57
  L 342.44 10.62
  A 0.56 0.56 0.0 0 1 343.00 11.18
  L 343.28 121.75
  Z"
/>
<path fill="#000000" d="
  M 453.88 70.27
  C 450.78 71.23 446.90 72.14 444.07 70.49
  C 441.19 68.81 440.41 64.83 442.03 62.09
  C 443.48 59.65 445.86 58.68 448.55 58.25
  C 458.16 56.72 467.17 53.83 476.54 51.99
  C 479.92 51.33 484.06 53.67 484.04 57.54
  Q 483.86 116.65 483.63 173.90
  Q 483.63 175.01 484.71 174.80
  C 489.55 173.86 495.51 173.83 495.68 180.51
  Q 495.80 185.33 491.35 186.69
  C 489.24 187.33 486.26 187.00 484.00 186.84
  Q 468.35 185.68 458.42 186.56
  Q 452.16 187.12 447.73 186.92
  C 441.83 186.65 440.26 178.56 444.73 175.57
  C 447.36 173.80 451.31 174.12 454.33 174.41
  A 0.52 0.51 -87.5 0 0 454.89 173.89
  L 454.89 71.02
  Q 454.89 69.97 453.88 70.27
  Z
  M 458.61 174.31
  C 458.60 176.59 457.14 178.19 454.79 178.04
  Q 451.46 177.83 447.99 177.98
  A 2.20 2.19 -84.4 0 0 445.95 179.66
  Q 445.70 180.69 446.00 181.63
  Q 446.61 183.56 448.64 183.42
  Q 464.35 182.30 472.89 182.58
  Q 480.76 182.83 489.06 183.44
  Q 491.83 183.64 492.03 180.87
  Q 492.04 180.72 492.04 180.58
  Q 492.06 177.89 489.38 178.07
  Q 487.22 178.21 484.83 178.36
  C 479.96 178.66 479.89 175.25 479.91 171.76
  Q 480.27 111.29 480.38 58.12
  C 480.39 55.97 478.33 55.09 476.43 55.60
  Q 460.71 59.84 447.98 62.17
  C 446.73 62.40 445.13 63.33 444.88 64.68
  C 444.54 66.52 445.98 68.03 447.84 67.78
  Q 450.41 67.45 453.11 66.78
  C 458.62 65.40 458.44 69.50 458.46 73.27
  Q 458.77 123.26 458.61 174.31
  Z"
/>
<path fill="#000000" d="
  M 574.30 69.88
  L 571.37 83.13
  A 0.50 0.50 0.0 0 1 570.72 83.50
  L 541.31 73.79
  A 0.50 0.50 0.0 0 0 540.99 73.79
  L 512.32 83.14
  A 0.50 0.50 0.0 0 1 511.68 82.79
  L 508.45 69.58
  A 0.50 0.50 0.0 0 1 508.72 69.01
  L 541.27 53.52
  A 0.50 0.50 0.0 0 1 541.71 53.53
  L 574.04 69.33
  A 0.50 0.50 0.0 0 1 574.30 69.88
  Z
  M 570.09 71.89
  A 0.48 0.48 0.0 0 0 569.83 71.35
  L 541.73 57.59
  A 0.48 0.48 0.0 0 0 541.31 57.59
  L 512.96 71.01
  A 0.48 0.48 0.0 0 0 512.70 71.56
  L 514.29 78.09
  A 0.48 0.48 0.0 0 0 514.90 78.43
  L 541.06 69.92
  A 0.48 0.48 0.0 0 1 541.36 69.92
  L 568.00 78.75
  A 0.48 0.48 0.0 0 0 568.62 78.40
  L 570.09 71.89
  Z"
/>
<path fill="#ffffff" d="
  M 454.79 178.04
  C 457.14 178.19 458.60 176.59 458.61 174.31
  Q 458.77 123.26 458.46 73.27
  C 458.44 69.50 458.62 65.40 453.11 66.78
  Q 450.41 67.45 447.84 67.78
  C 445.98 68.03 444.54 66.52 444.88 64.68
  C 445.13 63.33 446.73 62.40 447.98 62.17
  Q 460.71 59.84 476.43 55.60
  C 478.33 55.09 480.39 55.97 480.38 58.12
  Q 480.27 111.29 479.91 171.76
  C 479.89 175.25 479.96 178.66 484.83 178.36
  Q 487.22 178.21 489.38 178.07
  Q 492.06 177.89 492.04 180.58
  Q 492.04 180.72 492.03 180.87
  Q 491.83 183.64 489.06 183.44
  Q 480.76 182.83 472.89 182.58
  Q 464.35 182.30 448.64 183.42
  Q 446.61 183.56 446.00 181.63
  Q 445.70 180.69 445.95 179.66
  A 2.20 2.19 -84.4 0 1 447.99 177.98
  Q 451.46 177.83 454.79 178.04
  Z"
/>
<path fill="#ffffff" d="
  M 570.09 71.89
  L 568.62 78.40
  A 0.48 0.48 0.0 0 1 568.00 78.75
  L 541.36 69.92
  A 0.48 0.48 0.0 0 0 541.06 69.92
  L 514.90 78.43
  A 0.48 0.48 0.0 0 1 514.29 78.09
  L 512.70 71.56
  A 0.48 0.48 0.0 0 1 512.96 71.01
  L 541.31 57.59
  A 0.48 0.48 0.0 0 1 541.73 57.59
  L 569.83 71.35
  A 0.48 0.48 0.0 0 1 570.09 71.89
  Z"
/>
<path fill="#01033b" d="
  M 342.42 180.75
  Q 342.63 180.76 342.84 180.76
  Q 341.21 184.44 339.35 185.38
  Q 336.61 186.76 332.53 187.11
  C 323.94 187.87 315.33 188.44 307.31 186.77
  C 301.90 185.64 298.08 182.53 295.40 177.82
  Q 281.35 153.16 267.01 125.53
  A 0.90 0.89 58.3 0 0 265.70 125.21
  Q 265.63 125.27 265.63 125.75
  Q 265.64 149.94 265.80 173.98
  A 0.42 0.41 -0.7 0 0 266.23 174.39
  C 269.38 174.30 274.10 173.14 276.64 175.37
  C 281.77 179.90 279.20 187.77 271.88 187.11
  C 257.26 185.81 242.65 186.81 227.86 187.22
  C 218.29 187.48 218.41 173.39 229.15 174.26
  Q 232.55 174.54 235.72 174.50
  Q 236.25 174.50 236.25 173.96
  L 236.26 71.81
  A 0.49 0.49 0.0 0 0 235.72 71.32
  C 230.73 71.78 224.97 72.94 222.21 67.57
  Q 221.82 66.80 221.53 67.61
  C 219.42 73.43 213.07 71.79 208.47 71.75
  A 0.78 0.78 0.0 0 0 207.68 72.53
  Q 207.80 107.39 207.95 137.34
  C 208.07 160.47 198.00 181.59 173.45 186.27
  Q 163.10 188.24 151.48 187.06
  C 136.53 185.55 122.19 179.13 115.08 165.47
  C 110.32 156.31 109.47 146.19 109.57 135.75
  Q 109.88 101.49 109.70 72.64
  Q 109.69 71.53 108.58 71.60
  Q 105.50 71.79 102.47 71.90
  C 92.62 72.27 93.17 57.36 102.89 58.24
  Q 123.85 60.13 147.72 58.32
  C 152.81 57.93 155.58 63.40 154.00 67.73
  C 151.94 73.36 145.84 71.75 141.40 71.63
  Q 140.32 71.60 140.35 72.67
  Q 140.62 81.38 140.46 90.43
  Q 139.95 118.30 140.07 145.10
  C 140.11 154.90 140.24 169.49 152.47 172.41
  Q 161.42 174.56 170.64 172.18
  C 185.19 168.43 189.42 151.65 189.71 138.72
  Q 189.89 130.90 189.58 121.85
  Q 188.67 94.83 188.29 71.85
  A 0.33 0.33 0.0 0 0 187.95 71.52
  C 184.88 71.60 180.93 72.48 178.09 71.25
  C 172.36 68.79 172.94 60.44 178.91 58.62
  Q 180.74 58.06 182.60 58.27
  C 193.11 59.43 203.49 59.43 214.19 58.28
  Q 219.61 57.70 221.68 62.29
  Q 221.91 62.81 222.18 62.31
  Q 224.63 57.85 229.62 58.24
  Q 244.44 59.42 256.55 58.80
  Q 267.95 58.21 278.60 57.82
  Q 286.22 57.54 295.31 59.23
  C 311.59 62.25 325.06 71.43 325.03 89.29
  C 324.99 108.28 313.81 117.69 296.53 122.07
  Q 295.95 122.22 296.23 122.75
  Q 297.84 125.89 299.49 128.56
  Q 311.39 147.90 326.18 168.87
  Q 329.91 174.15 335.96 175.03
  Q 339.50 175.54 340.35 176.18
  Q 342.29 177.65 342.42 180.75
  Z
  M 291.05 119.64
  Q 300.90 117.73 308.46 113.47
  C 318.57 107.77 321.86 98.10 321.28 87.02
  C 320.06 63.76 289.84 60.22 272.13 61.66
  Q 250.74 63.41 228.88 61.96
  Q 225.92 61.76 225.35 64.68
  Q 225.04 66.28 227.79 67.87
  A 1.35 1.31 58.2 0 0 228.54 68.06
  L 236.08 67.71
  A 3.61 3.60 -1.4 0 1 239.86 71.31
  Q 239.83 122.70 239.88 174.13
  C 239.89 179.83 231.04 178.16 227.73 177.83
  A 2.61 2.57 -63.9 0 0 225.70 178.54
  Q 224.30 179.88 224.54 181.29
  Q 224.93 183.58 227.26 183.54
  C 242.22 183.24 257.46 182.27 272.56 183.45
  Q 275.29 183.66 275.64 180.95
  Q 275.67 180.73 275.62 180.51
  Q 274.99 177.68 272.48 177.76
  Q 269.03 177.87 265.77 178.01
  A 3.50 3.50 0.0 0 1 262.13 174.52
  L 261.98 121.80
  A 0.46 0.46 0.0 0 1 262.46 121.33
  L 268.45 121.51
  Q 269.02 121.53 269.29 122.04
  Q 283.42 149.22 298.42 175.78
  C 301.72 181.62 306.71 183.60 313.20 183.94
  Q 322.12 184.42 332.59 183.42
  C 334.52 183.24 339.53 182.65 338.47 179.61
  A 1.31 1.30 79.3 0 0 337.20 178.74
  C 331.22 178.91 326.20 175.27 322.90 170.58
  Q 311.00 153.70 300.34 136.86
  Q 295.37 129.01 290.67 120.44
  Q 290.31 119.78 291.05 119.64
  Z
  M 112.32 68.92
  Q 113.41 70.60 113.39 73.00
  Q 113.14 107.13 113.33 141.75
  C 113.46 163.23 124.33 178.36 145.76 182.48
  C 162.98 185.80 185.18 184.30 195.94 168.15
  C 201.76 159.40 204.30 148.76 204.28 138.66
  Q 204.19 104.26 204.07 71.35
  A 3.29 3.29 0.0 0 1 207.73 68.07
  Q 210.82 68.42 215.53 68.16
  Q 218.52 68.00 218.40 65.00
  Q 218.39 64.82 218.39 64.63
  Q 218.33 61.65 214.96 61.96
  Q 197.56 63.54 181.45 61.92
  A 2.71 2.67 32.2 0 0 179.85 62.27
  Q 177.62 63.57 177.71 64.96
  Q 177.92 68.20 181.16 68.22
  C 184.65 68.24 192.20 66.02 192.16 72.18
  C 191.99 93.76 193.27 115.08 193.43 136.70
  C 193.53 151.58 188.89 170.47 172.56 175.44
  Q 163.86 178.08 153.84 176.46
  C 137.93 173.89 136.24 158.57 136.33 145.16
  Q 136.59 108.42 136.90 71.09
  A 3.29 3.29 0.0 0 1 140.40 67.83
  L 147.75 68.30
  Q 151.02 68.51 150.81 65.24
  L 150.78 64.84
  Q 150.58 61.75 147.50 61.99
  Q 125.97 63.69 102.75 61.96
  Q 99.50 61.71 98.97 64.74
  Q 98.95 64.88 98.95 65.02
  Q 99.02 68.37 102.50 68.24
  L 110.42 67.94
  A 2.16 2.16 0.0 0 1 112.32 68.92
  Z"
/>
<path fill="#703bb8" d="
  M 291.05 119.64
  Q 290.31 119.78 290.67 120.44
  Q 295.37 129.01 300.34 136.86
  Q 311.00 153.70 322.90 170.58
  C 326.20 175.27 331.22 178.91 337.20 178.74
  A 1.31 1.30 79.3 0 1 338.47 179.61
  C 339.53 182.65 334.52 183.24 332.59 183.42
  Q 322.12 184.42 313.20 183.94
  C 306.71 183.60 301.72 181.62 298.42 175.78
  Q 283.42 149.22 269.29 122.04
  Q 269.02 121.53 268.45 121.51
  L 262.46 121.33
  A 0.46 0.46 0.0 0 0 261.98 121.80
  L 262.13 174.52
  A 3.50 3.50 0.0 0 0 265.77 178.01
  Q 269.03 177.87 272.48 177.76
  Q 274.99 177.68 275.62 180.51
  Q 275.67 180.73 275.64 180.95
  Q 275.29 183.66 272.56 183.45
  C 257.46 182.27 242.22 183.24 227.26 183.54
  Q 224.93 183.58 224.54 181.29
  Q 224.30 179.88 225.70 178.54
  A 2.61 2.57 -63.9 0 1 227.73 177.83
  C 231.04 178.16 239.89 179.83 239.88 174.13
  Q 239.83 122.70 239.86 71.31
  A 3.61 3.60 -1.4 0 0 236.08 67.71
  L 228.54 68.06
  A 1.35 1.31 58.2 0 1 227.79 67.87
  Q 225.04 66.28 225.35 64.68
  Q 225.92 61.76 228.88 61.96
  Q 250.74 63.41 272.13 61.66
  C 289.84 60.22 320.06 63.76 321.28 87.02
  C 321.86 98.10 318.57 107.77 308.46 113.47
  Q 300.90 117.73 291.05 119.64
  Z
  M 262.13 70.78
  L 261.96 115.75
  Q 261.96 116.53 262.80 116.59
  Q 270.85 117.15 278.89 115.50
  Q 293.98 112.40 296.30 98.35
  C 297.89 88.68 296.25 73.12 285.03 68.70
  C 279.02 66.34 272.29 66.58 265.89 66.87
  Q 262.14 67.03 262.13 70.78
  Z"
/>
<path fill="#c0c3fa" d="
  M 112.32 68.92
  A 2.16 2.16 0.0 0 0 110.42 67.94
  L 102.50 68.24
  Q 99.02 68.37 98.95 65.02
  Q 98.95 64.88 98.97 64.74
  Q 99.50 61.71 102.75 61.96
  Q 125.97 63.69 147.50 61.99
  Q 150.58 61.75 150.78 64.84
  L 150.81 65.24
  Q 151.02 68.51 147.75 68.30
  L 140.40 67.83
  A 3.29 3.29 0.0 0 0 136.90 71.09
  Q 136.59 108.42 136.33 145.16
  C 136.24 158.57 137.93 173.89 153.84 176.46
  Q 163.86 178.08 172.56 175.44
  C 188.89 170.47 193.53 151.58 193.43 136.70
  C 193.27 115.08 191.99 93.76 192.16 72.18
  C 192.20 66.02 184.65 68.24 181.16 68.22
  Q 177.92 68.20 177.71 64.96
  Q 177.62 63.57 179.85 62.27
  A 2.71 2.67 32.2 0 1 181.45 61.92
  Q 197.56 63.54 214.96 61.96
  Q 218.33 61.65 218.39 64.63
  Q 218.39 64.82 218.40 65.00
  Q 218.52 68.00 215.53 68.16
  Q 210.82 68.42 207.73 68.07
  A 3.29 3.29 0.0 0 0 204.07 71.35
  Q 204.19 104.26 204.28 138.66
  C 204.30 148.76 201.76 159.40 195.94 168.15
  C 185.18 184.30 162.98 185.80 145.76 182.48
  C 124.33 178.36 113.46 163.23 113.33 141.75
  Q 113.14 107.13 113.39 73.00
  Q 113.41 70.60 112.32 68.92
  Z"
/>
<path fill="#01033b" d="
  M 261.96 115.75
  L 262.13 70.78
  Q 262.14 67.03 265.89 66.87
  C 272.29 66.58 279.02 66.34 285.03 68.70
  C 296.25 73.12 297.89 88.68 296.30 98.35
  Q 293.98 112.40 278.89 115.50
  Q 270.85 117.15 262.80 116.59
  Q 261.96 116.53 261.96 115.75
  Z
  M 284.30 72.39
  C 278.86 69.98 272.36 70.20 266.34 70.45
  A 0.60 0.60 0.0 0 0 265.77 71.05
  L 265.57 112.29
  Q 265.57 112.99 266.27 113.00
  C 275.18 113.23 288.26 111.64 291.72 101.56
  C 294.62 93.15 293.70 76.56 284.30 72.39
  Z"
/>
<path fill="#7373ee" d="
  M 284.30 72.39
  C 293.70 76.56 294.62 93.15 291.72 101.56
  C 288.26 111.64 275.18 113.23 266.27 113.00
  Q 265.57 112.99 265.57 112.29
  L 265.77 71.05
  A 0.60 0.60 0.0 0 1 266.34 70.45
  C 272.36 70.20 278.86 69.98 284.30 72.39
  Z"
/>
<path fill="#000000" d="
  M 343.48 156.40
  Q 338.80 139.35 343.28 121.75
  Q 353.53 95.56 378.73 90.70
  Q 385.27 89.44 394.67 90.24
  C 411.94 91.71 425.74 101.32 431.86 117.83
  C 438.80 136.53 436.98 159.45 422.36 173.74
  C 409.22 186.58 389.88 190.61 372.98 185.36
  Q 352.18 178.89 343.48 156.40
  Z
  M 401.22 94.98
  C 384.12 91.07 366.75 94.94 355.20 108.39
  C 341.87 123.90 340.77 150.81 353.45 167.11
  C 361.43 177.37 372.19 183.13 385.26 183.75
  Q 401.69 184.52 414.03 175.98
  C 431.35 163.99 435.08 143.03 429.97 123.86
  C 426.00 108.99 415.99 98.35 401.22 94.98
  Z"
/>
<path fill="#000000" d="
  M 529.27 134.79
  Q 528.60 144.68 530.95 153.83
  C 532.73 160.75 537.21 173.07 545.88 173.66
  Q 559.85 174.60 568.66 163.88
  Q 571.58 160.34 574.75 156.63
  C 576.03 155.15 578.09 154.32 580.03 154.69
  C 585.53 155.74 587.64 160.58 585.12 165.58
  C 580.44 174.88 570.54 182.11 561.00 185.23
  C 549.38 189.01 534.96 188.12 523.94 182.63
  C 510.85 176.12 502.81 163.28 500.82 148.86
  C 496.69 118.95 513.41 90.27 546.20 90.26
  C 565.83 90.26 581.73 100.86 583.49 121.73
  C 583.76 124.97 584.30 128.46 582.39 131.31
  Q 580.28 134.46 576.11 134.40
  Q 557.49 134.14 539.35 134.01
  Q 534.59 133.97 529.84 134.23
  Q 529.31 134.25 529.27 134.79
  Z
  M 526.67 130.47
  Q 550.10 130.17 575.61 130.82
  Q 579.67 130.92 579.97 127.22
  C 580.58 119.70 578.19 110.44 572.96 104.55
  Q 566.44 97.21 556.54 95.08
  C 519.43 87.10 497.17 120.13 505.53 153.75
  C 510.98 175.68 530.79 186.23 552.44 183.41
  Q 566.37 181.60 576.83 170.96
  Q 580.36 167.38 582.08 163.42
  Q 583.50 160.14 580.36 158.59
  Q 578.48 157.65 577.15 159.35
  C 568.77 169.96 561.52 178.02 546.63 177.38
  C 538.84 177.04 533.93 171.31 530.96 164.80
  Q 523.84 149.17 525.95 131.12
  Q 526.03 130.48 526.67 130.47
  Z"
/>
<path fill="#ffffff" d="
  M 401.22 94.98
  C 415.99 98.35 426.00 108.99 429.97 123.86
  C 435.08 143.03 431.35 163.99 414.03 175.98
  Q 401.69 184.52 385.26 183.75
  C 372.19 183.13 361.43 177.37 353.45 167.11
  C 340.77 150.81 341.87 123.90 355.20 108.39
  C 366.75 94.94 384.12 91.07 401.22 94.98
  Z
  M 375.98 174.32
  C 380.40 179.04 387.52 180.37 393.53 178.77
  C 401.75 176.58 406.09 166.94 407.71 159.09
  C 410.44 145.82 410.13 131.45 407.27 118.45
  Q 405.93 112.34 402.67 106.98
  Q 396.79 97.35 385.78 98.10
  C 374.36 98.89 369.56 111.87 367.79 121.49
  Q 365.15 135.89 366.95 151.09
  C 367.89 159.13 370.35 168.29 375.98 174.32
  Z"
/>
<path fill="#ffffff" d="
  M 525.95 131.12
  Q 523.84 149.17 530.96 164.80
  C 533.93 171.31 538.84 177.04 546.63 177.38
  C 561.52 178.02 568.77 169.96 577.15 159.35
  Q 578.48 157.65 580.36 158.59
  Q 583.50 160.14 582.08 163.42
  Q 580.36 167.38 576.83 170.96
  Q 566.37 181.60 552.44 183.41
  C 530.79 186.23 510.98 175.68 505.53 153.75
  C 497.17 120.13 519.43 87.10 556.54 95.08
  Q 566.44 97.21 572.96 104.55
  C 578.19 110.44 580.58 119.70 579.97 127.22
  Q 579.67 130.92 575.61 130.82
  Q 550.10 130.17 526.67 130.47
  Q 526.03 130.48 525.95 131.12
  Z
  M 544.22 97.83
  C 533.12 99.11 528.44 115.90 526.72 124.73
  Q 526.61 125.30 527.19 125.31
  Q 542.25 125.73 558.14 124.97
  Q 558.70 124.95 558.71 124.38
  C 558.95 114.77 557.51 96.30 544.22 97.83
  Z"
/>
<path fill="#000000" d="
  M 526.72 124.73
  C 528.44 115.90 533.12 99.11 544.22 97.83
  C 557.51 96.30 558.95 114.77 558.71 124.38
  Q 558.70 124.95 558.14 124.97
  Q 542.25 125.73 527.19 125.31
  Q 526.61 125.30 526.72 124.73
  Z
  M 546.96 101.48
  C 537.69 100.34 532.77 114.24 531.31 121.18
  Q 531.17 121.82 531.83 121.82
  L 554.40 121.56
  Q 555.01 121.55 555.00 120.95
  C 554.99 115.92 553.74 102.32 546.96 101.48
  Z"
/>
<path fill="#000000" d="
  M 375.98 174.32
  C 370.35 168.29 367.89 159.13 366.95 151.09
  Q 365.15 135.89 367.79 121.49
  C 369.56 111.87 374.36 98.89 385.78 98.10
  Q 396.79 97.35 402.67 106.98
  Q 405.93 112.34 407.27 118.45
  C 410.13 131.45 410.44 145.82 407.71 159.09
  C 406.09 166.94 401.75 176.58 393.53 178.77
  C 387.52 180.37 380.40 179.04 375.98 174.32
  Z
  M 401.45 166.33
  Q 403.79 161.18 404.70 155.27
  C 406.64 142.59 408.40 102.54 387.96 101.72
  C 380.23 101.41 376.08 107.16 373.77 113.56
  C 370.09 123.71 369.40 135.53 370.16 146.61
  C 370.76 155.25 373.78 172.34 383.90 175.07
  Q 396.00 178.33 401.45 166.33
  Z"
/>
<path fill="#9895ee" d="
  M 531.31 121.18
  C 532.77 114.24 537.69 100.34 546.96 101.48
  C 553.74 102.32 554.99 115.92 555.00 120.95
  Q 555.01 121.55 554.40 121.56
  L 531.83 121.82
  Q 531.17 121.82 531.31 121.18
  Z"
/>
<path fill="#9895ee" d="
  M 401.45 166.33
  Q 396.00 178.33 383.90 175.07
  C 373.78 172.34 370.76 155.25 370.16 146.61
  C 369.40 135.53 370.09 123.71 373.77 113.56
  C 376.08 107.16 380.23 101.41 387.96 101.72
  C 408.40 102.54 406.64 142.59 404.70 155.27
  Q 403.79 161.18 401.45 166.33
  Z"
/>
</svg>
